<?xml version="1.0" standalone="no"?><!DOCTYPE svg PUBLIC "-//W3C//DTD SVG 1.1//EN" "http://www.w3.org/Graphics/SVG/1.1/DTD/svg11.dtd"><svg t="1522483811596" class="icon" style="" viewBox="0 0 1024 1024" version="1.1" xmlns="http://www.w3.org/2000/svg" p-id="2212" xmlns:xlink="http://www.w3.org/1999/xlink" width="200" height="200"><defs><style type="text/css"></style></defs><path d="M417.554579 841.798788V685.383062c0-27.4883 22.379855-49.868155 49.868155-49.868155h88.789643c27.4883 0 49.868155 22.379855 49.868155 49.868155v156.415726H417.554579z" fill="#BAD4FF" p-id="2213"></path><path d="M556.212377 650.596983c19.095855 0 34.786079 15.690224 34.786079 34.786079v141.33365H432.515026V685.383062c0-19.095855 15.690224-34.786079 34.786079-34.786079H556.212377m0-30.042523h-88.911272c-35.759116 0-64.828602 29.069486-64.828602 64.828602v171.376173h218.568476V685.383062c0.12163-35.759116-28.947856-64.828602-64.828602-64.828602z" fill="#4E8CEE" p-id="2214"></path><path d="M521.912816 173.687136L198.742844 496.978739c-5.594964 5.594964-14.838817 5.594964-20.433781 0-5.594964-5.594964-5.594964-14.838817 0-20.433781L501.600665 153.253356c5.594964-5.594964 14.838817-5.594964 20.433781 0 5.594964 5.594964 5.594964 14.838817-0.12163 20.43378z" fill="#4E8CEE" p-id="2215"></path><path d="M522.034446 153.496615L845.326048 476.788217c5.594964 5.594964 5.594964 14.838817 0 20.433781-5.594964 5.594964-14.838817 5.594964-20.433781 0L501.600665 173.930396c-5.594964-5.594964-5.594964-14.838817 0-20.433781 5.594964-5.594964 14.838817-5.594964 20.433781 0z" fill="#4E8CEE" p-id="2216"></path><path d="M762.496258 419.135764v378.511463c0 17.39304-14.230669 31.745338-31.745337 31.745337H294.222117c-17.39304 0-31.745338-14.230669-31.745338-31.745337V419.257394l-30.042523 26.880152v351.509681c0 34.056301 27.73156 61.787861 61.787861 61.78786h436.528804c34.056301 0 61.787861-27.73156 61.78786-61.78786V446.259176l-30.042523-27.123412z" fill="#4E8CEE" p-id="2217"></path></svg>