<?xml version="1.0" standalone="no"?><!DOCTYPE svg PUBLIC "-//W3C//DTD SVG 1.1//EN" "http://www.w3.org/Graphics/SVG/1.1/DTD/svg11.dtd"><svg t="1523272011639" class="icon" style="" viewBox="0 0 1312 1024" version="1.1" xmlns="http://www.w3.org/2000/svg" p-id="2596" xmlns:xlink="http://www.w3.org/1999/xlink" width="256.25" height="200"><defs><style type="text/css"></style></defs><path d="M295.643367 1021.665327c0.286714 0.184316 0.675826 0.102398 0.962541 0.286714 2.334673 1.187816 4.771745 2.047959 7.393132 2.047959 1.413092 0 2.805704-0.184316 4.218796-0.573429l347.763925-94.902422 347.763925 94.902422c1.413092 0.389112 2.826183 0.573429 4.218796 0.573429 2.621388 0 5.058459-0.860143 7.352173-2.088918 0.327673-0.163837 0.675826-0.102398 0.962541-0.286714l288.00448-176.0016c6.102918-3.747765 8.99054-11.140897 7.044979-18.02204l-159.474571-559.99392c-1.310694-4.710306-4.730785-8.539989-9.277254-10.424112-4.546469-1.822684-9.625407-1.535969-13.946601 0.839663l-158.778264 89.086218c-7.679846 4.321194-10.424112 14.089958-6.102918 21.790284 4.321194 7.741285 14.048999 10.465071 21.831243 6.102918l141.083898-79.194576 150.627387 528.823984-256.465911 156.771265-60.926781-487.373293c-1.085418-8.806224-9.379652-14.909142-17.878682-13.885162-8.744785 1.085418-14.970581 9.092938-13.885162 17.858203l61.029179 488.274395-317.105978-86.567229 0-87.365933c0-8.826703-7.167857-15.99456-15.99456-15.99456s-15.99456 7.167857-15.99456 15.99456l0 87.365933-317.146937 86.567229 61.029179-488.274395c1.085418-8.765265-5.119898-16.772785-13.885162-17.858203-8.703826-1.02398-16.772785 5.078938-17.878682 13.885162l-60.885822 487.373293-256.465911-156.730305 150.627387-528.783024 141.083898 79.194576c7.741285 4.280234 17.469091 1.576928 21.831243-6.102918 4.321194-7.720806 1.576928-17.448611-6.102918-21.790284l-158.819224-89.127177c-4.259755-2.396112-9.338693-2.723786-13.926121-0.839663-4.546469 1.884122-7.966561 5.693326-9.277254 10.424112l-159.474571 559.99392c-1.98652 6.922102 0.901102 14.274275 7.044979 18.02204l287.963521 176.0016zM645.148057 747.771285c3.071939 2.826183 6.942581 4.218796 10.854183 4.218796 3.850163 0 7.679846-1.372133 10.751785-4.136877 10.649387-9.686846 261.237655-239.652167 261.237655-475.863763 0-152.531989-119.457451-271.98944-271.98944-271.98944s-271.98944 119.457451-271.98944 271.98944c0 232.115678 250.48587 465.910682 261.155737 475.761365zM655.98176 32.030079c136.803664 0 240.00032 103.176176 240.00032 240.00032 0 195.109058-191.770885 394.785064-239.897922 441.806204-48.02464-47.574089-240.082238-249.891962-240.082238-441.806204 0-136.824144 103.196656-240.00032 240.00032-240.00032zM799.99424 272.00992c0-79.399372-64.613108-143.992-143.992-143.992s-143.992 64.613108-143.992 143.992 64.613108 143.992 143.992 143.992 143.992-64.613108 143.992-143.992zM655.98176 384.0128c-61.766445 0-112.00288-50.236435-112.00288-112.00288s50.236435-112.00288 112.00288-112.00288 112.00288 50.236435 112.00288 112.00288-50.236435 112.00288-112.00288 112.00288z" p-id="2597"></path></svg>